# AST/ASF file generated using VICON BodyLanguage
# -----------------------------------------------
:version 1.10
:name VICON
:units
  mass 1.0
  length 0.45
  angle deg
:documentation
   .ast/.asf automatically generated from VICON data using
   VICON BodyBuilder and BodyLanguage model FoxedUp or BRILLIANT.MOD
:root
   order TX TY TZ RX RY RZ
   axis XYZ
   position 0 0 0  
   orientation 0 0 0 
:bonedata
  begin
     id 1 
     name lhipjoint
     direction 0.623529 -0.717805 0.309788 
     length 2.23224 
     axis 0 0 0  XYZ
  end
  begin
     id 2 
     name lfemur
     direction 0.34202 -0.939693 0  
     length 7.11402  
     axis 0 0 20  XYZ
    dof rx ry rz
    limits (-160.0 20.0)
           (-70.0 70.0)
           (-60.0 70.0)
  end
  begin
     id 3 
     name ltibia
     direction 0.34202 -0.939693 0   
     length 6.78496   
     axis 0 0 20   XYZ
    dof rx
    limits (-10.0 170.0)
  end
  begin
     id 4 
     name lfoot
     direction 0.125078 -0.343648 0.930732   
     length 1.84054   
     axis -90 7.62852e-016 20   XYZ
    dof rx rz
    limits (-45.0 90.0)
           (-70.0 20.0)
  end
  begin
     id 5 
     name ltoes
     direction 1.53565e-011 -4.21893e-011 1   
     length 0.916474   
     axis -90 7.62852e-016 20   XYZ
    dof rx
    limits (-90.0 20.0)
  end
  begin
     id 6 
     name rhipjoint
     direction -0.564688 -0.757748 0.327026   
     length 2.11457  
     axis 0 0 0  XYZ 
  end
  begin
     id 7 
     name rfemur
     direction -0.34202 -0.939693 0   
     length 7.14609   
     axis 0 0 -20   XYZ
    dof rx ry rz
    limits (-160.0 20.0)
           (-70.0 70.0)
           (-70.0 60.0)
  end
  begin
     id 8 
     name rtibia
     direction -0.34202 -0.939693 0   
     length 6.78101   
     axis 0 0 -20   XYZ
    dof rx
    limits (-10.0 170.0)
 end
 begin
     id 9 
     name rfoot
     direction -0.0992671 -0.272734 0.956955   
     length 1.96168  
     axis -90 -7.62852e-016 -20   XYZ
    dof rx rz
    limits (-45.0 90.0)
           (-20.0 70.0)
  end
  begin
     id 10 
     name rtoes
     direction -1.5356e-011 -4.21891e-011 1   
     length 0.982933   
     axis -90 -7.62852e-016 -20   XYZ
    dof rx
    limits (-90.0 20.0)
  end
  begin
     id 11 
     name lowerback
     direction -0.00596953 0.998668 0.0512524   
     length 1.87557   
     axis 0 0 0   XYZ
    dof rx ry rz
    limits (-20.0 45.0)
           (-30.0 30.0)
           (-30.0 30.0)
  end
  begin
     id 12 
     name upperback
     direction 0.00584879 0.999652 0.0257308   
     length 1.87883   
     axis 0 0 0   XYZ
    dof rx ry rz
    limits (-20.0 45.0)
           (-30.0 30.0)
           (-30.0 30.0)
  end
  begin
     id 13 
     name thorax
     direction 0.010104 0.999947 0.00178881   
     length 1.87779   
     axis 0 0 0   XYZ
    dof rx ry rz
    limits (-20.0 45.0)
           (-30.0 30.0)
           (-30.0 30.0)
  end
  begin
     id 14 
     name lowerneck
     direction 0.0120771 0.995934 -0.0892773   
     length 1.40897   
     axis 0 0 0   XYZ
    dof rx ry rz
    limits (-20.0 45.0)
           (-30.0 30.0)
           (-30.0 30.0)
  end
  begin
     id 15 
     name upperneck
     direction -0.030568 0.999465 -0.0116366   
     length 1.38661   
     axis 0 0 0   XYZ
    dof rx ry rz
    limits (-20.0 45.0)
           (-30.0 30.0)
           (-30.0 30.0)
  end
  begin
     id 16
     name head
     direction -0.0170715 0.999854 -0.00104426  
     length 1.47052  
     axis 0 0 0   XYZ
    dof rx ry rz
    limits (-20.0 45.0)
           (-30.0 30.0)
           (-30.0 30.0)
  end
  begin
     id 17 
     name lclavicle
     direction 0.977763 0.206143 0.038532  
     length 3.02424  
     axis 0 0 0   XYZ
    dof ry rz
    limits (-20.0 10.0)
           (0.0 20.0)
  end
  begin
     id 18 
     name lhumerus
     direction 1 -4.48965e-011 -2.62654e-027   
     length 4.68382   
     axis 180 -30 -90   XYZ
    dof rx ry rz
    limits (-60.0 90.0)
           (-90.0 90.0)
           (-90.0 90.0)
  end
  begin
     id 19
     name lradius
     direction 1 -4.48973e-011 -1.54954e-027   
     length 2.98124   
     axis 180 -30 -90   XYZ
    dof rx
    limits (-10.0 170.0)
  end
  begin
     id 20
     name lwrist
     direction 1 -4.48959e-011 7.20928e-028   
     length 1.49062   
     axis -5.52449e-016 90 90   XYZ
    dof ry
    limits (-180.0 0.0)
 end
  begin
     id 21 
     name lhand
     direction 1 -4.48971e-011 1.44186e-027   
     length 0.707595   
     axis -9.20027e-016 90 90   XYZ
    dof rx rz
    limits (-90.0 90.0)
           (-45.0 45.0)
  end
  begin
     id 22 
     name lfingers
     direction 1 -4.48985e-011 2.88371e-027   
     length 0.570481   
     axis -1.84005e-015 90 90   XYZ
    dof rx
    limits (0.0 90.0)
  end
  begin
     id 23
     name lthumb
     direction 0.707107 -6.34929e-011 0.707107   
     length 0.819101   
     axis -90 45 2.85299e-015   XYZ
    dof rx rz
    limits (-45.0 45.0)
           (-45.0 45.0)
  end
  begin
     id 24 
     name rclavicle
     direction -0.958661 0.284411 -0.00895327   
     length 3.11921  
     axis 0 0 0   XYZ 
    dof ry rz
    limits (-10.0 20.0)
           (-20.0 0.0)
  end
  begin
     id 25 
     name rhumerus
     direction -1 -4.48963e-011 -4.22193e-027  
     length 4.75876   
     axis 180 30 90   XYZ
    dof rx ry rz
    limits (-90.0 60.0)
           (-90.0 90.0)
           (-90.0 90.0)
  end
  begin
     id 26 
     name rradius
     direction -1 -4.48968e-011 -1.07616e-027   
     length 2.93293   
     axis 180 30 90   XYZ
    dof rx
    limits (-10.0 170.0)
  end
  begin
     id 27 
     name rwrist
     direction -1 -4.48965e-011 7.20928e-028   
     length 1.46647   
     axis -5.52449e-016 -90 -90   XYZ
    dof ry
    limits (-180.0 0.0)
  end
  begin
     id 28
     name rhand
     direction -1 -4.48971e-011 1.44186e-027   
     length 0.831748   
     axis -9.20027e-016 -90 -90   XYZ
    dof rx rz
    limits (-90.0 90.0)
           (-45.0 45.0)
  end
  begin
     id 29
     name rfingers
     direction -1 -4.48961e-011 2.88371e-027   
     length 0.670577   
     axis -1.84005e-015 -90 -90   XYZ
    dof rx
    limits (0.0 90.0)
  end
  begin
     id 30
     name rthumb
     direction -0.707107 -6.34929e-011 0.707107   
     length 0.962818   
     axis -90 -45 -2.85299e-015   XYZ
    dof rx rz
    limits (-45.0 45.0)
           (-45.0 45.0)
  end
:hierarchy
  begin
    root lhipjoint rhipjoint lowerback
    lhipjoint lfemur
    lfemur ltibia
    ltibia lfoot
    lfoot ltoes
    rhipjoint rfemur
    rfemur rtibia
    rtibia rfoot
    rfoot rtoes
    lowerback upperback
    upperback thorax
    thorax lowerneck lclavicle rclavicle
    lowerneck upperneck
    upperneck head
    lclavicle lhumerus
    lhumerus lradius
    lradius lwrist
    lwrist lhand lthumb
    lhand lfingers
    rclavicle rhumerus
    rhumerus rradius
    rradius rwrist
    rwrist rhand rthumb
    rhand rfingers
  end

#!OML:ASF E:\id_vita\Project 1\Capture day 1\Session 1\Female.ASF
:FULLY-SPECIFIED
:DEGREES
1
root -8.22731 27.3098 0.356756 103.475 88.6546 87.7246
lowerback -15.492 0.2693 -5.70746
upperback -5.39975 1.51085 -0.443874
thorax 2.81084 0.908614 3.02883
lowerneck 4.40414 -0.0724316 -3.72021
upperneck 2.62778 -0.2382 7.48761
head 0.0796033 -0.132579 3.04528
rclavicle 1.19395e-014 7.95139e-016
rhumerus -33.6238 -18.4753 -82.1502
rradius 17.1492
rwrist 26.674
rhand -14.7479 10.8455
rfingers 7.12502
rthumb 11.4079 -18.8241
lclavicle 1.19395e-014 7.95139e-016
lhumerus -36.6268 20.1802 77.0066
lradius 18.2245
lwrist -39.3556
lhand -5.42729 22.3943
lfingers 7.12502
lthumb 20.3828 51.3446
rfemur -21.0659 11.4196 17.4532
rtibia 20.3793
rfoot -5.22453 -19.8067
rtoes -10.9024
lfemur -24.1152 -12.493 -18.701
ltibia 24.1816
lfoot -16.9733 16.3721
ltoes 23.1267
2
root -8.22767 27.3079 0.352726 113.812 88.5279 98.0369
lowerback -15.5742 0.206206 -5.74657
upperback -5.2843 1.44305 -0.535714
thorax 2.98469 0.865103 2.94636
lowerneck 4.11337 -0.137784 -3.45018
upperneck 2.73495 -0.314822 7.24577
head 0.168278 -0.162239 2.91182
rclavicle -9.18137e-015 1.21259e-014
rhumerus -33.4417 -18.4975 -82.2772
rradius 17.084
rwrist 26.5844
rhand -14.6826 10.7655
rfingers 7.12502
rthumb 11.4709 -18.9007
lclavicle -9.18137e-015 1.21259e-014
lhumerus -36.4553 20.1608 76.8965
lradius 18.263
lwrist -39.1241
lhand -5.4405 22.1954
lfingers 7.12502
lthumb 20.3701 51.1471
rfemur -21.1439 11.5181 17.3186
rtibia 20.5779
rfoot -5.2407 -20.1593
rtoes -10.6634
lfemur -24.2575 -12.7342 -18.792
ltibia 24.292
lfoot -16.7846 16.4315
ltoes 22.1045
3
root -8.23133 27.3076 0.345864 113.203 88.5103 97.2754
lowerback -15.576 0.250666 -5.71266
upperback -5.3287 1.50073 -0.590814
thorax 2.93619 0.896972 2.87846
lowerneck 4.02568 -0.145765 -3.60593
upperneck 2.78305 -0.33319 7.4092
head 0.200099 -0.170325 2.99686
rclavicle 2.04997e-016 7.55382e-015
rhumerus -33.4859 -18.3275 -82.3199
rradius 17.1283
rwrist 26.3024
rhand -14.4402 10.532
rfingers 7.12502
rthumb 11.7047 -19.121
lclavicle 2.04997e-016 7.55382e-015
lhumerus -36.5073 20.2174 76.7346
lradius 18.3406
lwrist -39.1269
lhand -5.39892 22.3355
lfingers 7.12502
lthumb 20.4101 51.2829
rfemur -21.4072 11.5062 17.2259
rtibia 20.692
rfoot -5.2399 -20.1421
rtoes -10.5032
lfemur -24.5444 -12.8576 -18.8057
ltibia 24.4203
lfoot -16.659 16.5714
ltoes 21.0383
4
root -8.23418 27.3063 0.336869 111.781 88.5173 95.717
lowerback -16.708 0.185945 -6.03736
upperback -4.59232 1.5287 -0.315183
thorax 4.30128 0.839895 3.39976
lowerneck 3.92162 -0.0834038 -4.25241
upperneck 1.90897 -0.244345 7.67197
head -0.0643674 -0.146895 3.20937
rclavicle 2.32982e-014 5.36719e-015
rhumerus -32.2601 -18.3229 -82.1427
rradius 16.9131
rwrist 26.3673
rhand -14.0746 10.4378
rfingers 7.12502
rthumb 12.0572 -19.1948
lclavicle 2.32982e-014 5.36719e-015
lhumerus -35.5355 22.0172 76.7778
lradius 18.0365
lwrist -40.4306
lhand -5.64587 22.116
lfingers 7.12502
lthumb 20.1728 51.0886
rfemur -21.6273 11.4243 17.1612
rtibia 20.7564
rfoot -5.0974 -20.1036
rtoes -10.8065
lfemur -24.8115 -12.9009 -18.8282
ltibia 24.5776
lfoot -16.6701 16.6041
ltoes 20.0698
5
root -8.22849 27.3031 0.330247 116.788 88.5221 100.932
lowerback -16.2323 0.192977 -5.97558
upperback -4.72889 1.49251 -0.3388
thorax 3.90769 0.839053 3.31809
lowerneck 4.1111 -0.119652 -4.26073
upperneck 1.94818 -0.297487 7.71357
head -0.0815192 -0.175698 3.22666
rclavicle 2.60656e-014 -1.55052e-014
rhumerus -32.7862 -18.5663 -81.8681
rradius 16.8766
rwrist 26.6321
rhand -13.9627 10.5139
rfingers 7.12502
rthumb 12.165 -19.1124
lclavicle 2.60656e-014 -1.55052e-014
lhumerus -36.0532 22.5953 76.1839
lradius 17.9598
lwrist -40.938
lhand -5.86728 21.7945
lfingers 7.12502
lthumb 19.9599 50.7894
rfemur -21.3393 11.5413 17.2076
rtibia 20.7632
rfoot -4.98079 -20.3391
rtoes -11.2867
lfemur -24.6622 -12.8771 -18.9246
ltibia 24.7472
lfoot -16.7277 16.4903
ltoes 19.5729
